# xmcd
#
# Track frame offsets:
#	150
#	19067
#	41877
#	60212
#	84410
#	105575
#	130492
#	154440
#	172122
#	198482
#
# Disc length: 2936 seconds
#
# Revision: 1
# Processed by: cddbd v1.5.2PL0 Copyright (c) Steve Scherf et al.
# Submitted via: EZCDAudioConverter 8.0.2.1
#
DISCID=850b760a
DTITLE=Various Artist - Ai Cho Tôi Tình Yêu
DYEAR=1993
DGENRE=
TTITLE0=Nguyên Vũ, Phượng Mai - Con đường xưa em đi
TTITLE1=Thanh Tuyền - Mùa sầu riêng
TTITLE2=Nguyên Vũ - Hoa sứ nhà nàng
TTITLE3=Hương Lan - Nén hương yêu
TTITLE4=Giao Linh - Người ngoài phố
TTITLE5=Nguyên Vũ, Phượng Mai - Nếu chúng mình cách trở
TTITLE6=Sơn Tuyền - Nửa đêm ngoài phố
TTITLE7=Nguyên Vũ - Ai Cho Tôi Tình Yêu
TTITLE8=Như Mai - Tâm sự với anh
TTITLE9=Thiên Trang - Bông cỏ may
EXTD=
EXTT0=
EXTT1=
EXTT2=
EXTT3=
EXTT4=
EXTT5=
EXTT6=
EXTT7=
EXTT8=
EXTT9=
PLAYORDER=
